<svg width="34" height="34" viewBox="0 0 34 34" fill="none" xmlns="http://www.w3.org/2000/svg">
<circle cx="17" cy="17" r="16" stroke="#FF7A00" stroke-width="2"/>
<path d="M17 16C15.625 16 14.4479 15.5104 13.4688 14.5312C12.4896 13.5521 12 12.375 12 11C12 9.625 12.4896 8.44792 13.4688 7.46875C14.4479 6.48958 15.625 6 17 6C18.375 6 19.5521 6.48958 20.5312 7.46875C21.5104 8.44792 22 9.625 22 11C22 12.375 21.5104 13.5521 20.5312 14.5312C19.5521 15.5104 18.375 16 17 16ZM7 26V22.5C7 21.7917 7.18229 21.1406 7.54688 20.5469C7.91146 19.9531 8.39583 19.5 9 19.1875C10.2917 18.5417 11.6042 18.0573 12.9375 17.7344C14.2708 17.4115 15.625 17.25 17 17.25C18.375 17.25 19.7292 17.4115 21.0625 17.7344C22.3958 18.0573 23.7083 18.5417 25 19.1875C25.6042 19.5 26.0885 19.9531 26.4531 20.5469C26.8177 21.1406 27 21.7917 27 22.5V26H7ZM9.5 23.5H24.5V22.5C24.5 22.2708 24.4427 22.0625 24.3281 21.875C24.2135 21.6875 24.0625 21.5417 23.875 21.4375C22.75 20.875 21.6146 20.4531 20.4688 20.1719C19.3229 19.8906 18.1667 19.75 17 19.75C15.8333 19.75 14.6771 19.8906 13.5312 20.1719C12.3854 20.4531 11.25 20.875 10.125 21.4375C9.9375 21.5417 9.78646 21.6875 9.67188 21.875C9.55729 22.0625 9.5 22.2708 9.5 22.5V23.5ZM17 13.5C17.6875 13.5 18.276 13.2552 18.7656 12.7656C19.2552 12.276 19.5 11.6875 19.5 11C19.5 10.3125 19.2552 9.72396 18.7656 9.23438C18.276 8.74479 17.6875 8.5 17 8.5C16.3125 8.5 15.724 8.74479 15.2344 9.23438C14.7448 9.72396 14.5 10.3125 14.5 11C14.5 11.6875 14.7448 12.276 15.2344 12.7656C15.724 13.2552 16.3125 13.5 17 13.5Z" fill="#FF7A00"/>
</svg>
