<svg width="16" height="16" viewBox="0 0 16 16" fill="none" xmlns="http://www.w3.org/2000/svg">
<path d="M4.00008 9.33317C3.63341 9.33317 3.31953 9.20262 3.05841 8.9415C2.7973 8.68039 2.66675 8.3665 2.66675 7.99984C2.66675 7.63317 2.7973 7.31928 3.05841 7.05817C3.31953 6.79706 3.63341 6.6665 4.00008 6.6665C4.36675 6.6665 4.68064 6.79706 4.94175 7.05817C5.20286 7.31928 5.33341 7.63317 5.33341 7.99984C5.33341 8.3665 5.20286 8.68039 4.94175 8.9415C4.68064 9.20262 4.36675 9.33317 4.00008 9.33317ZM8.00008 9.33317C7.63341 9.33317 7.31953 9.20262 7.05841 8.9415C6.7973 8.68039 6.66675 8.3665 6.66675 7.99984C6.66675 7.63317 6.7973 7.31928 7.05841 7.05817C7.31953 6.79706 7.63341 6.6665 8.00008 6.6665C8.36675 6.6665 8.68064 6.79706 8.94175 7.05817C9.20286 7.31928 9.33342 7.63317 9.33342 7.99984C9.33342 8.3665 9.20286 8.68039 8.94175 8.9415C8.68064 9.20262 8.36675 9.33317 8.00008 9.33317ZM12.0001 9.33317C11.6334 9.33317 11.3195 9.20262 11.0584 8.9415C10.7973 8.68039 10.6667 8.3665 10.6667 7.99984C10.6667 7.63317 10.7973 7.31928 11.0584 7.05817C11.3195 6.79706 11.6334 6.6665 12.0001 6.6665C12.3667 6.6665 12.6806 6.79706 12.9417 7.05817C13.2029 7.31928 13.3334 7.63317 13.3334 7.99984C13.3334 8.3665 13.2029 8.68039 12.9417 8.9415C12.6806 9.20262 12.3667 9.33317 12.0001 9.33317Z" fill="#7B7B7B"/>
</svg>
