<svg width="20" height="20" viewBox="0 0 20 20" fill="none" xmlns="http://www.w3.org/2000/svg">
<path d="M19.7219 9.48L12.2219 4.48C12.1194 4.41188 11.9981 4.375 11.875 4.375H0.625C0.28 4.375 0 4.655 0 5V15C0 15.345 0.28 15.625 0.625 15.625H11.875C11.9981 15.625 12.1194 15.5881 12.2219 15.52L19.7219 10.52C19.8956 10.4038 20 10.2087 20 10C20 9.79125 19.8956 9.59625 19.7219 9.48ZM11.6856 14.375H1.25V5.625H11.6856L18.2481 10L11.6856 14.375Z" fill="#FF7A00"/>
<path d="M6.25 9.375V7.5H5V9.375H3.125V10.625H5V12.5H6.25V10.625H8.125V9.375H6.25Z" fill="#FF7A00"/>
</svg>
