<svg width="24" height="24" viewBox="0 0 24 24" fill="none" xmlns="http://www.w3.org/2000/svg">
<path d="M8.00098 14C7.71764 14 7.48014 13.9042 7.28848 13.7125C7.09681 13.5208 7.00098 13.2833 7.00098 13C7.00098 12.7167 7.09681 12.4792 7.28848 12.2875C7.48014 12.0958 7.71764 12 8.00098 12C8.28431 12 8.52181 12.0958 8.71348 12.2875C8.90514 12.4792 9.00098 12.7167 9.00098 13C9.00098 13.2833 8.90514 13.5208 8.71348 13.7125C8.52181 13.9042 8.28431 14 8.00098 14ZM12.001 14C11.7176 14 11.4801 13.9042 11.2885 13.7125C11.0968 13.5208 11.001 13.2833 11.001 13C11.001 12.7167 11.0968 12.4792 11.2885 12.2875C11.4801 12.0958 11.7176 12 12.001 12C12.2843 12 12.5218 12.0958 12.7135 12.2875C12.9051 12.4792 13.001 12.7167 13.001 13C13.001 13.2833 12.9051 13.5208 12.7135 13.7125C12.5218 13.9042 12.2843 14 12.001 14ZM16.001 14C15.7176 14 15.4801 13.9042 15.2885 13.7125C15.0968 13.5208 15.001 13.2833 15.001 13C15.001 12.7167 15.0968 12.4792 15.2885 12.2875C15.4801 12.0958 15.7176 12 16.001 12C16.2843 12 16.5218 12.0958 16.7135 12.2875C16.9051 12.4792 17.001 12.7167 17.001 13C17.001 13.2833 16.9051 13.5208 16.7135 13.7125C16.5218 13.9042 16.2843 14 16.001 14ZM5.00098 22C4.45098 22 3.98014 21.8042 3.58848 21.4125C3.19681 21.0208 3.00098 20.55 3.00098 20V6C3.00098 5.45 3.19681 4.97917 3.58848 4.5875C3.98014 4.19583 4.45098 4 5.00098 4H6.00098V2H8.00098V4H16.001V2H18.001V4H19.001C19.551 4 20.0218 4.19583 20.4135 4.5875C20.8051 4.97917 21.001 5.45 21.001 6V20C21.001 20.55 20.8051 21.0208 20.4135 21.4125C20.0218 21.8042 19.551 22 19.001 22H5.00098ZM5.00098 20H19.001V10H5.00098V20ZM5.00098 8H19.001V6H5.00098V8Z" fill="#7B7B7B"/>
</svg>
